# xmcd CD database file
#
# Track frame offsets:
#	150
#	13217
#	28077
#	46334
#	60827
#	80078
#	90856
#	100281
#	117789
#	133687
#
# Disc length: 2010 seconds
#
# Revision: 0
# Processed by: cddbd v1.5.2PL0 Copyright (c) Steve Scherf et al.
# Submitted via: CDex 1.51
#
DISCID=7607d80a
DTITLE=Ben Eaton - Sucker Punched
DYEAR=2002
DGENRE=Blues
TTITLE0=Road to the Big Time (this ain't)
TTITLE1=Sucker Punched
TTITLE2=Forever Restless
TTITLE3=I Got Friends
TTITLE4=You Been Callin'
TTITLE5=Finger Lickin' Good
TTITLE6=Old Drunk Blues
TTITLE7=Big Dark Blues
TTITLE8=The Good-bye Waltz
TTITLE9=Like a Stranger
EXTD=YEAR: 2002
EXTT0=
EXTT1=
EXTT2=
EXTT3=
EXTT4=
EXTT5=
EXTT6=
EXTT7=
EXTT8=
EXTT9=
PLAYORDER=
